<svg width="120" height="63" viewBox="0 0 120 63" fill="none" xmlns="http://www.w3.org/2000/svg">
<path fill-rule="evenodd" clip-rule="evenodd" d="M38.5204 28.6619C34.4979 31.5979 29.1904 33.0658 22.5979 33.0658C16.0054 33.0658 10.6979 31.5979 6.67539 28.6619C2.65287 25.698 0.641602 21.8114 0.641602 17.0021C0.641602 12.1927 2.65287 8.32006 6.67539 5.38412C10.6979 2.42021 16.0054 0.938263 22.5979 0.938263C29.1904 0.938263 34.4979 2.42021 38.5204 5.38412C42.5709 8.32006 44.5961 12.1927 44.5961 17.0021C44.5961 21.8114 42.5709 25.698 38.5204 28.6619ZM14.5947 23.0417C16.6339 24.5796 19.3017 25.3485 22.5979 25.3485C25.8941 25.3485 28.5619 24.5796 30.6011 23.0417C32.6403 21.5038 33.6599 19.4906 33.6599 17.0021C33.6599 14.5135 32.6403 12.5003 30.6011 10.9624C28.5619 9.42453 25.8941 8.65559 22.5979 8.65559C19.3017 8.65559 16.6339 9.42453 14.5947 10.9624C12.5835 12.5003 11.5779 14.5135 11.5779 17.0021C11.5779 19.4906 12.5835 21.5038 14.5947 23.0417ZM57.1418 32.0173V9.70415H45.4514V1.98681H79.7685V9.70415H68.0781V32.0173H57.1418ZM82.3457 1.98681V32.0173H93.2819V22.832H106.439C110.713 22.832 113.995 21.9512 116.286 20.1896C118.576 18.4001 119.736 15.8556 119.764 12.5562C119.764 9.17288 118.618 6.57247 116.328 4.75499C114.037 2.90954 110.769 1.98681 106.523 1.98681H82.3457ZM102.877 16.6665H93.2819V8.15229H102.877C104.777 8.15229 106.229 8.51579 107.235 9.24278C108.269 9.96978 108.785 11.0183 108.785 12.3884C108.785 13.7585 108.269 14.8211 107.235 15.576C106.229 16.303 104.777 16.6665 102.877 16.6665ZM71.7173 62.9264C68.7984 62.9264 65.9135 62.5414 63.0625 61.7713C60.2342 60.9786 58.0055 59.9481 56.3763 58.6798L59.4309 53.4139C60.8564 54.5464 62.7571 55.475 65.1329 56.1997C67.5087 56.9245 69.8506 57.2869 72.1585 57.2869C73.8781 57.2869 75.2357 57.1057 76.2313 56.7433C77.2495 56.3583 77.7586 55.8487 77.7586 55.2145C77.7586 54.1953 76.005 53.4932 72.4979 53.1082L68.0178 52.5986C64.1712 52.1909 61.3768 51.4208 59.6346 50.2884C57.915 49.1333 57.0551 47.48 57.0551 45.3283C57.0551 42.7464 58.3788 40.742 61.0261 39.3151C63.6735 37.8656 67.2032 37.1408 71.6154 37.1408C74.1496 37.1408 76.5594 37.4239 78.8447 37.9902C81.13 38.5564 83.0306 39.3264 84.5466 40.3003L82.069 45.3963C80.734 44.513 79.1275 43.8109 77.2495 43.29C75.3941 42.769 73.5387 42.5199 71.6833 42.5425C69.9184 42.5652 68.4703 42.769 67.339 43.1541C66.2303 43.5391 65.6646 44.0487 65.642 44.6828C65.642 45.5888 67.1353 46.189 70.1221 46.4834L74.6361 46.959C78.7542 47.3894 81.7409 48.2047 83.5963 49.4051C85.4517 50.5828 86.3794 52.2702 86.3794 54.4671C86.402 57.0037 85.067 59.0535 82.3745 60.6162C79.7045 62.1563 76.1521 62.9264 71.7173 62.9264ZM3.02724 37.8882V62.213H26.6495V55.7241H11.8856V37.8882H3.02724ZM28.968 37.8882V62.213H54.9321V56.7093H37.5548V52.1909H53.2351V47.4686H37.5548V43.3919H54.5927V37.8882H28.968ZM94.5053 61.7713C97.3562 62.5414 100.241 62.9264 103.16 62.9264C107.595 62.9264 111.147 62.1563 113.817 60.6162C116.51 59.0535 117.845 57.0037 117.822 54.4671C117.822 52.2702 116.894 50.5828 115.039 49.4051C113.184 48.2047 110.197 47.3894 106.079 46.959L101.565 46.4834C98.5781 46.189 97.0847 45.5888 97.0847 44.6828C97.1073 44.0487 97.673 43.5391 98.7817 43.1541C99.9131 42.769 101.361 42.5652 103.126 42.5425C104.981 42.5199 106.837 42.769 108.692 43.29C110.57 43.8109 112.177 44.513 113.512 45.3963L115.989 40.3003C114.473 39.3264 112.573 38.5564 110.287 37.9902C108.002 37.4239 105.592 37.1408 103.058 37.1408C98.646 37.1408 95.1162 37.8656 92.4689 39.3151C89.8215 40.742 88.4979 42.7464 88.4979 45.3283C88.4979 47.48 89.3577 49.1333 91.0773 50.2884C92.8196 51.4208 95.614 52.1909 99.4605 52.5986L103.941 53.1082C107.448 53.4932 109.201 54.1953 109.201 55.2145C109.201 55.8487 108.692 56.3583 107.674 56.7433C106.678 57.1057 105.321 57.2869 103.601 57.2869C101.293 57.2869 98.9514 56.9245 96.5756 56.1997C94.1998 55.475 92.2992 54.5464 90.8737 53.4139L87.8191 58.6798C89.4482 59.9481 91.6769 60.9786 94.5053 61.7713Z" fill="#4AC858"/>
</svg>
